<svg 
 xmlns="http://www.w3.org/2000/svg"
 xmlns:xlink="http://www.w3.org/1999/xlink"
 width="21px" height="21px">
<path fill-rule="evenodd"  fill="rgb(102, 102, 102)"
 d="M20.435,1.455 L18.270,3.728 L18.270,18.213 C18.270,19.503 17.383,20.650 16.159,20.939 C15.719,21.048 15.249,20.957 14.871,20.699 C14.811,20.659 14.757,20.610 14.711,20.552 L11.076,16.080 C11.064,16.079 11.050,16.077 11.037,16.079 L6.406,20.666 C6.358,20.713 6.304,20.754 6.245,20.787 C5.996,20.926 5.733,20.998 5.476,20.998 C5.414,20.998 5.352,20.994 5.291,20.985 C4.395,20.860 3.654,20.282 3.255,19.500 L2.047,20.769 C1.902,20.922 1.709,20.998 1.517,20.998 C1.329,20.998 1.142,20.926 0.998,20.781 C0.705,20.486 0.700,20.003 0.986,19.702 L2.936,17.654 L2.936,2.956 C2.936,1.413 4.157,0.159 5.657,0.159 L15.550,0.159 C16.651,0.159 17.596,0.837 18.024,1.806 L19.374,0.388 C19.661,0.086 20.132,0.082 20.423,0.376 C20.717,0.671 20.721,1.154 20.435,1.455 ZM5.473,19.471 L10.110,14.878 C10.157,14.832 10.210,14.791 10.268,14.759 C10.801,14.457 11.449,14.487 11.958,14.835 C12.017,14.874 12.070,14.924 12.116,14.981 L15.751,19.453 C15.776,19.459 15.801,19.459 15.824,19.453 C16.383,19.320 16.787,18.799 16.787,18.213 L16.787,5.287 L4.430,18.266 C4.456,18.869 4.889,19.380 5.473,19.471 ZM16.787,2.956 C16.787,2.255 16.232,1.684 15.550,1.684 L5.657,1.684 C4.975,1.684 4.420,2.255 4.420,2.956 L4.420,4.527 L10.310,4.527 C10.720,4.527 11.052,4.869 11.052,5.290 C11.052,5.711 10.720,6.053 10.310,6.053 L4.420,6.053 L4.420,16.095 L16.787,3.106 L16.787,2.956 Z"/>
</svg>